<svg width="221" height="157" viewBox="0 0 221 157" fill="none" xmlns="http://www.w3.org/2000/svg">
<g opacity="0.9">
<path d="M27.0456 34.827C24.6953 33.5787 22.0058 33.1194 19.3745 33.5168C17.5636 33.7761 15.8392 34.4584 14.3412 35.5085C12.8432 36.5586 11.6137 37.9468 10.7524 39.5607C8.8547 43.0984 8.27788 47.196 9.12517 51.1202C9.44453 53.2525 10.5256 55.1969 12.1683 56.5935C12.9308 57.2728 13.8439 57.7612 14.8323 58.0184C15.8206 58.2756 16.8559 58.2942 17.8529 58.0728C21.661 57.1057 25.1367 55.1269 27.912 52.3459L28.4403 61.3695C25.2903 63.3921 21.771 64.7711 18.0854 65.4269C14.1053 66.3609 9.91737 65.6768 6.44136 63.525C4.82373 62.388 3.46299 60.9238 2.44731 59.2274C1.43163 57.531 0.783651 55.6401 0.545362 53.6773C-0.756658 47.5674 0.292205 41.1911 3.48278 35.8202C5.0123 33.2977 7.0839 31.1471 9.54742 29.5242C12.0109 27.9014 14.8047 26.847 17.7261 26.4374C20.9963 25.7806 24.3805 25.9771 27.5527 27.008L27.0456 34.827Z" fill="#AA1D21"/>
<path d="M13.3517 102.303C14.1158 102.806 14.9772 103.144 15.88 103.293C16.7829 103.442 17.7071 103.4 18.5926 103.169C20.5203 102.958 22.377 102.321 24.0288 101.305C25.6806 100.289 27.0863 98.9194 28.1445 97.2943C30.1161 93.534 30.6495 89.1839 29.6449 85.0586C29.5168 84.0213 29.1722 83.0225 28.6334 82.127C28.0946 81.2314 27.3737 80.4591 26.5173 79.86C25.5882 79.2613 24.5474 78.8571 23.4578 78.6719C22.3681 78.4866 21.2522 78.5241 20.1775 78.7822C18.8142 79.1111 17.5382 79.7311 16.4371 80.5996C15.295 81.4032 14.3369 82.4406 13.6264 83.6427L13.3517 102.303ZM13.3517 109.784V120.35L4.89868 121.85L5.36359 86.1364C5.38483 84.6411 5.25743 83.1475 4.98322 81.6774C4.62437 79.6385 4.07968 77.6366 3.35601 75.6969L11.3864 72.7383C11.9647 73.8052 12.4253 74.9319 12.76 76.0984C15.0528 73.4708 18.1386 71.6608 21.5511 70.9421C31.2721 69.2233 36.9708 73.0905 38.6473 82.5438C39.9884 88.74 38.9232 95.2144 35.6676 100.654C34.0585 103.202 31.9122 105.367 29.379 106.999C26.8458 108.631 23.9867 109.689 21.0017 110.101C18.4505 110.628 15.8086 110.519 13.3094 109.784H13.3517Z" fill="#AA1D21"/>
<path d="M50.3548 89.7699C51.2846 94.9474 53.9684 97.1451 58.4697 96.3632C60.1802 96.074 61.7828 95.3341 63.1126 94.2199C64.4423 93.1056 65.4511 91.6571 66.0351 90.0235C67.5504 86.1373 67.9172 81.8975 67.0917 77.8089C66.2253 72.9272 63.5415 70.8562 59.0614 71.6593C57.3568 71.9513 55.761 72.6927 54.4385 73.8072C53.1161 74.9216 52.1149 76.3686 51.5382 77.999C49.9774 81.7462 49.5655 85.8727 50.3548 89.8544M41.5636 91.8197C40.3151 85.7159 41.425 79.3657 44.6701 74.0473C46.1615 71.5199 48.196 69.3555 50.6264 67.7109C53.0569 66.0662 55.8225 64.9823 58.7232 64.5376C62.6431 63.5736 66.7853 64.2044 70.2405 66.2917C71.8084 67.4341 73.1215 68.8901 74.0965 70.5673C75.0715 72.2444 75.687 74.106 75.904 76.0337C77.1796 82.1972 76.1175 88.6147 72.9243 94.0386C71.4247 96.5935 69.3698 98.7785 66.9116 100.432C64.4535 102.085 61.655 103.165 58.7232 103.591C54.8247 104.526 50.7145 103.88 47.2905 101.794C45.6888 100.608 44.3522 99.1009 43.3661 97.3688C42.38 95.6368 41.7661 93.718 41.5636 91.7352V91.8197Z" fill="#AA1D21"/>
<path opacity="0.5" d="M31.737 48.2452C31.4679 46.7166 31.3195 45.1691 31.2932 43.6172C31.4412 34.9529 31.5045 31.1278 31.6525 25.4854L40.3591 23.9428L40.1689 42.0323C40.1568 43.4492 40.2771 44.8642 40.5281 46.2588C41.458 51.4574 44.1418 53.6551 48.6431 52.8521C50.3569 52.5713 51.9636 51.8346 53.2947 50.7191C54.6258 49.6037 55.6322 48.1506 56.2085 46.5123C57.1721 44.1212 57.6671 41.5672 57.6666 38.9892C57.8146 30.346 57.8779 26.4998 58.0259 20.8786L66.7325 19.3359L66.5423 37.4254C66.6476 42.0258 65.4459 46.5617 63.0765 50.5064C61.5746 53.0613 59.5194 55.2473 57.062 56.9038C54.6045 58.5604 51.8072 59.6455 48.8755 60.0795C44.9742 61.0083 40.8638 60.3549 37.4428 58.262C35.8491 57.0871 34.517 55.5937 33.5311 53.8766C32.5453 52.1595 31.9271 50.2562 31.7159 48.2875" fill="#AA1D21"/>
<path fill-rule="evenodd" clip-rule="evenodd" d="M50.7563 127.365C49.4672 117.602 64.7672 114.411 65.7181 119.757C65.8288 120.689 65.6486 121.632 65.2021 122.457C64.7556 123.281 64.0648 123.948 63.2245 124.364C60.927 125.82 58.3497 126.778 55.659 127.175C54.0417 127.467 52.3914 127.531 50.7563 127.365ZM36.2805 123.773C37.8933 124.191 39.4377 124.838 40.8663 125.696C41.9018 126.309 41.7538 126.034 41.5425 127.133C40.9597 130.141 40.9597 133.233 41.5425 136.241C41.8107 138.395 42.5103 140.472 43.5996 142.349C44.6889 144.227 46.1455 145.865 47.8823 147.166C49.5583 148.344 51.4606 149.16 53.4686 149.564C55.4766 149.968 57.5466 149.95 59.5474 149.512C70.1137 147.652 74.5093 141.947 82.4974 135.438L80.1094 128.802C74.7417 134.952 61.7875 146.025 53.8839 141.08C52.972 140.465 52.2047 139.658 51.6355 138.717C51.0662 137.776 50.7086 136.722 50.5872 135.628C50.494 135.118 50.4304 134.603 50.397 134.085C52.9348 134.529 55.5304 134.529 58.0682 134.085C62.709 133.429 67.0494 131.406 70.5363 128.274C72.0173 126.988 73.1317 125.333 73.7664 123.477C74.4011 121.622 74.5334 119.631 74.15 117.708C73.9777 116.323 73.4435 115.008 72.6013 113.895C71.7592 112.782 70.6388 111.91 69.3529 111.368C61.5339 107.839 48.5585 114.263 45.0083 119.229C43.4022 121.511 26.8343 110.649 17.1133 121.342C15.9397 122.543 15.0762 124.011 14.5975 125.62C14.1189 127.229 14.0394 128.931 14.3661 130.577C14.6294 132.167 15.3659 133.64 16.4793 134.804C17.6636 136.072 19.1561 137.011 20.8115 137.53C22.6077 138.164 24.6787 138.84 27.0033 139.643C29.3279 140.446 30.617 141.355 30.8283 142.581C30.9751 143.253 30.9556 143.951 30.7714 144.614C30.5873 145.276 30.2441 145.884 29.7717 146.385C28.6984 147.529 27.2674 148.274 25.7142 148.498C25.086 148.603 24.4489 148.646 23.8123 148.625C21.1725 148.795 18.5237 148.487 15.9933 147.716C11.6613 146.358 7.78157 143.845 4.77189 140.446V149.723C7.38633 151.803 10.3385 153.419 13.4996 154.499C17.4091 156.055 21.6706 156.508 25.8199 155.81C29.9783 155.252 33.8272 153.309 36.7454 150.294C38.0129 148.934 38.9324 147.288 39.4255 145.496C39.9186 143.704 39.9707 141.819 39.5772 140.002C39.3115 138.445 38.5738 137.006 37.4639 135.882C36.4317 134.781 35.1482 133.948 33.7235 133.451C32.2653 132.944 30.1944 132.289 27.5105 131.465C24.8267 130.641 23.284 129.584 23.1149 128.253C23.0199 127.716 23.0719 127.163 23.2654 126.654C23.4588 126.144 23.7865 125.696 24.2138 125.358C25.2076 124.501 26.4241 123.944 27.7218 123.752H28.1234C30.8229 123.283 33.5834 123.291 36.2805 123.773Z" fill="#AA1D21"/>
<path d="M136.195 12.7007C134.327 13.036 132.583 13.8684 131.148 15.1104C129.713 16.3525 128.638 17.9582 128.038 19.7589C126.398 23.9522 125.98 28.5245 126.833 32.9456C127.538 36.8481 129.813 38.4683 133.659 37.8061C136.111 37.3835 137.991 35.4815 139.28 32.1637C140.57 28.8459 141.098 22.2737 140.865 12.5739C139.31 12.3998 137.738 12.4424 136.195 12.7007ZM149.001 28.0851C148.987 29.0353 149.072 29.9843 149.255 30.9169C149.658 34.4281 150.658 37.8445 152.214 41.0182L146.909 41.9481C145.303 42.2228 143.908 41.2296 142.683 38.9473C141.514 40.6164 140.017 42.03 138.284 43.1018C136.551 44.1736 134.618 44.8812 132.603 45.1813C130.947 45.5777 129.227 45.6284 127.551 45.3303C125.875 45.0321 124.278 44.3915 122.86 43.4485C121.509 42.3897 120.382 41.073 119.544 39.5747C118.706 38.0764 118.174 36.4264 117.979 34.7208C116.68 28.2433 117.8 21.5144 121.128 15.8071C122.607 13.1099 124.685 10.7876 127.202 9.01826C129.718 7.24892 132.607 6.07964 135.646 5.60015C140.105 4.55892 144.716 4.33688 149.255 4.94498L149.001 28.0851Z" fill="#AA1D21"/>
<path d="M111.66 36.9397V47.6116L103.207 49.1121L103.672 13.398C103.693 11.9028 103.566 10.4091 103.292 8.93909C102.943 6.89791 102.398 4.89516 101.665 2.95861L109.695 0C110.239 1.04855 110.684 2.14509 111.026 3.27558C111.744 5.68841 112.086 8.19731 112.041 10.7142L111.808 29.3954L111.66 36.9397Z" fill="#AA1D21"/>
<path fill-rule="evenodd" clip-rule="evenodd" d="M154.263 71.448C155.179 76.6326 157.884 78.8304 162.378 78.0415C164.089 77.7522 165.691 77.0123 167.021 75.898C168.351 74.7837 169.36 73.3353 169.944 71.7017C171.449 67.8131 171.815 63.5764 171 59.4871C170.134 54.6055 167.45 52.5345 162.97 53.3375C161.265 53.6295 159.67 54.371 158.347 55.4854C157.025 56.5998 156.023 58.0469 155.447 59.6773C153.886 63.4244 153.474 67.5509 154.263 71.5326M145.472 73.4979C144.228 67.3966 145.33 61.0505 148.558 55.7255C150.056 53.1995 152.095 51.0366 154.528 49.3923C156.962 47.7481 159.729 46.6633 162.632 46.2159C166.552 45.2542 170.693 45.8848 174.149 47.9698C175.717 49.1123 177.03 50.5683 178.005 52.2454C178.98 53.9226 179.596 55.7841 179.813 57.7119C181.088 63.8754 180.026 70.293 176.833 75.7169C175.333 78.2718 173.278 80.4567 170.82 82.1101C168.362 83.7636 165.564 84.843 162.632 85.2687C158.733 86.2039 154.623 85.5581 151.199 83.4725C150.33 82.8792 149.548 82.168 148.875 81.3592C147.146 83.1909 145.265 84.8734 143.253 86.3888C140.105 88.4149 136.585 89.7942 132.898 90.4462C128.918 91.3802 124.73 90.6961 121.254 88.5443C119.638 87.4081 118.279 85.9437 117.267 84.2469C116.255 82.55 115.611 80.6588 115.38 78.6966C114.061 72.5896 115.102 66.2096 118.296 60.8395C119.828 58.319 121.9 56.1699 124.363 54.5473C126.826 52.9247 129.619 51.8691 132.539 51.4567C135.816 50.8 139.207 50.9965 142.387 52.0273L141.964 59.8041C139.617 58.5456 136.925 58.0857 134.293 58.4939C132.483 58.7548 130.759 59.4377 129.261 60.4876C127.764 61.5375 126.534 62.9249 125.671 64.5377C123.773 68.0755 123.197 72.1731 124.044 76.0972C124.363 78.2295 125.444 80.174 127.087 81.5706C127.84 82.2378 128.738 82.7207 129.71 82.9811C130.682 83.2415 131.701 83.2723 132.687 83.0709C136.232 82.184 139.487 80.3929 142.133 77.8724C143.424 76.6512 144.566 75.2823 145.536 73.7938L145.472 73.4979Z" fill="#AA1D21"/>
<path opacity="0.5" d="M78.4188 84.5087C78.152 82.9722 77.9967 81.4184 77.9539 79.8595C77.9539 71.2163 78.0806 67.3913 78.1863 61.77L86.5337 60.2907V78.3591C86.5571 79.7762 86.6913 81.1894 86.9352 82.5856C87.8368 87.756 90.4502 89.9679 94.7753 89.2212C96.446 88.9299 98.0042 88.1842 99.279 87.0659C100.554 85.9476 101.496 84.4999 102.003 82.8814C102.921 80.488 103.38 77.9429 103.355 75.3794C103.355 66.7362 103.482 62.9112 103.588 57.2688L112.041 55.7896V73.879C112.197 78.4348 111.078 82.9437 108.807 86.8966C107.427 89.4162 105.481 91.5819 103.124 93.2243C100.767 94.8668 98.061 95.9414 95.2191 96.364C93.3519 96.8085 91.4141 96.871 89.5221 96.5478C87.6301 96.2246 85.8229 95.5224 84.2091 94.4832C82.6617 93.2713 81.3715 91.7631 80.4136 90.0469C79.4557 88.3306 78.8494 86.4407 78.6301 84.4875" fill="#AA1D21"/>
<path opacity="0.5" d="M115.38 124.111C115.102 122.576 114.947 121.021 114.915 119.462C115.063 110.797 115.126 106.972 115.274 101.33L123.981 99.8085L123.79 117.898C123.796 119.315 123.923 120.729 124.171 122.124C125.079 127.323 127.784 129.5 132.264 128.718C133.977 128.433 135.581 127.694 136.912 126.58C138.242 125.465 139.25 124.014 139.83 122.378C140.81 119.991 141.313 117.435 141.309 114.855C141.457 106.191 141.521 102.366 141.668 96.7232L150.375 95.2017L150.164 113.291C150.291 117.872 149.111 122.395 146.761 126.33C145.264 128.882 143.212 131.066 140.758 132.719C138.304 134.372 135.509 135.453 132.581 135.882C128.683 136.822 124.571 136.176 121.149 134.086C119.557 132.909 118.226 131.415 117.24 129.698C116.255 127.981 115.636 126.079 115.422 124.111" fill="#AA1D21"/>
<path d="M219.986 91.8836C218.26 90.8621 216.256 90.411 214.259 90.5945C213.111 90.8214 212.023 91.2889 211.069 91.9665C210.115 92.644 209.315 93.516 208.722 94.5252C207.26 96.6473 206.459 99.1546 206.419 101.731L206.228 122.991L197.67 124.512L198.071 86.8329L206.63 85.3114V88.5447C208.932 85.6091 212.235 83.6233 215.907 82.9657C217.597 82.7624 219.299 82.6847 221 82.7332L219.986 91.8836Z" fill="#AA1D21"/>
<path d="M193.443 125.168L184.779 126.689L185.096 96.0681L185.328 88.9887L193.845 87.4883L193.443 125.168Z" fill="#AA1D21"/>
<path d="M169.077 103.126C170.535 101.224 169.225 99.8503 167.45 100.252L153.101 102.788L153.207 95.1589L173.409 91.5875C174.493 91.5044 175.58 91.693 176.573 92.1363C177.565 92.5796 178.431 93.2636 179.092 94.1261C179.753 94.9887 180.188 96.0027 180.358 97.076C180.529 98.1494 180.428 99.2483 180.066 100.273C175.333 106.613 170.662 112.783 165.992 119.081C164.534 121.004 165.865 122.357 167.619 121.955L181.968 119.419V127.069L161.744 130.619C160.661 130.704 159.573 130.517 158.581 130.073C157.589 129.63 156.723 128.945 156.064 128.082C155.404 127.218 154.971 126.203 154.804 125.129C154.637 124.055 154.742 122.957 155.109 121.934C159.864 115.256 164.111 109.571 169.162 103.126" fill="#AA1D21"/>
<path fill-rule="evenodd" clip-rule="evenodd" d="M118.549 17.5394L118.803 10.46C114.577 13.4819 104.898 15.9967 97.1211 15.4684C88.1609 14.8767 80.7222 12.2985 73.0299 19.23C71.8001 20.387 70.8982 21.8488 70.4158 23.467C69.9333 25.0851 69.8874 26.8021 70.2827 28.4438C70.5511 30.0314 71.2868 31.503 72.396 32.6703C73.5594 33.9125 75.011 34.8488 76.6225 35.3963C78.4399 36.0303 80.4898 36.7065 82.8355 37.5096C85.1812 38.3126 86.428 39.2213 86.6605 40.447C86.8045 41.1209 86.7816 41.8198 86.5938 42.4828C86.4059 43.1458 86.0588 43.7527 85.5827 44.2509C84.5033 45.3875 83.0754 46.1312 81.5253 46.3641C80.8977 46.4741 80.2593 46.5096 79.6233 46.4698C76.9848 46.6472 74.3359 46.3465 71.8043 45.5822L69.3318 52.3658C73.2379 53.9052 77.4881 54.358 81.6309 53.676C85.7907 53.1229 89.6412 51.179 92.5564 48.1604C93.8272 46.7985 94.7487 45.1488 95.2419 43.3527C95.7351 41.5565 95.7853 39.6675 95.3882 37.8477C95.1489 36.2507 94.4089 34.7709 93.2749 33.6212C92.2239 32.5336 90.9369 31.7021 89.5134 31.191C88.0552 30.7049 85.9842 30.0287 83.3004 29.2257C80.6166 28.4226 79.0739 27.3237 78.9259 25.9924C78.8325 25.4607 78.8833 24.9138 79.0728 24.4083C79.2623 23.9029 79.5838 23.4575 80.0037 23.1183C84.0823 19.4835 91.7745 21.9983 96.6562 22.6534C102.996 23.4776 113.562 21.5546 118.423 17.6028" fill="#AA1D21"/>
<path d="M103.038 112.509C102.277 112.007 101.42 111.669 100.522 111.516C99.623 111.363 98.7024 111.399 97.8184 111.621C95.8897 111.838 94.033 112.479 92.3815 113.498C90.7299 114.518 89.3247 115.89 88.2665 117.517C86.2878 121.275 85.7468 125.625 86.745 129.753C86.8818 130.788 87.2301 131.783 87.7681 132.678C88.3062 133.572 89.0225 134.346 89.8726 134.952C90.8022 135.549 91.8437 135.951 92.9337 136.132C94.0237 136.314 95.1392 136.272 96.2123 136.008C97.5728 135.701 98.845 135.086 99.9317 134.212C105.257 130.366 103.038 118.637 103.102 112.509M103.102 105.007V94.4405L111.555 92.9189L110.984 120.053C110.706 122.783 111.038 125.54 111.956 128.126C112.849 131.453 114.751 134.422 117.4 136.624C120.049 138.826 123.315 140.154 126.749 140.425L123.981 147.821C120.551 147.267 117.285 145.965 114.414 144.007C111.544 142.05 109.139 139.485 107.37 136.494C104.288 140.396 99.8678 143.016 94.9655 143.848C85.2445 145.553 79.5458 141.679 77.8693 132.225C76.5187 126.036 77.5846 119.565 80.849 114.136C82.4513 111.548 84.607 109.348 87.1611 107.693C89.7152 106.037 92.6042 104.969 95.6206 104.563C98.114 104.112 100.679 104.265 103.102 105.007Z" fill="#AA1D21"/>
</g>
</svg>
