<?xml version="1.0" encoding="UTF-8"?> <!-- Generator: Adobe Illustrator 23.0.3, SVG Export Plug-In . SVG Version: 6.00 Build 0) --> <svg xmlns:cc="http://creativecommons.org/ns#" xmlns:dc="http://purl.org/dc/elements/1.1/" xmlns:rdf="http://www.w3.org/1999/02/22-rdf-syntax-ns#" xmlns:svg="http://www.w3.org/2000/svg" xmlns="http://www.w3.org/2000/svg" xmlns:xlink="http://www.w3.org/1999/xlink" version="1.1" id="svg2" x="0px" y="0px" viewBox="0 0 400 300" style="enable-background:new 0 0 400 300;" xml:space="preserve"> <style type="text/css"> .st0{fill:#E51636;} </style> <path class="st0" d="M353.9,161.9c2.3,0,4.1-2,4.1-4.4c0-2.4-1.9-4.4-4.1-4.4c-2.3,0-4.1,1.9-4.1,4.4 C349.8,160,351.6,161.9,353.9,161.9z M353.9,154.1c1.8,0,3.3,1.6,3.3,3.5c0,1.9-1.5,3.5-3.3,3.5c-1.8,0-3.3-1.6-3.3-3.5 C350.6,155.6,352.1,154.1,353.9,154.1z M353.2,158.3L353.2,158.3h0.3l0.3,0c0.2,0,0.3,0,0.4,0.1c0.2,0.1,0.3,0.2,0.3,0.3 c0,0.1,0.1,0.3,0.1,0.6c0,0.3,0,0.5,0.1,0.6h1.1l0-0.1c0,0,0-0.1,0-0.1c0,0,0-0.1,0-0.1v-0.4c0-0.5-0.1-0.8-0.4-1 c-0.1-0.1-0.4-0.2-0.7-0.3c0.3,0,0.6-0.1,0.8-0.3c0.2-0.2,0.3-0.4,0.3-0.8c0-0.5-0.2-0.9-0.6-1.1c-0.2-0.1-0.5-0.2-0.9-0.2 c-0.1,0-0.4,0-0.9,0H352v4.5h1.2V158.3z M353.2,156.1h0.3c0.3,0,0.5,0,0.7,0.1c0.2,0.1,0.4,0.3,0.4,0.5c0,0.3-0.1,0.4-0.2,0.5h0 c-0.2,0.1-0.4,0.2-0.7,0.2h-0.5V156.1z M304.9,181.5c0-2.5,2.9-4.1,7-4.2c4,0,7.2,1.3,7.2,4.2c0,2.2-2,4.3-7.2,4.3v0 C306.6,185.8,304.9,183.6,304.9,181.5z M105.4,89.6c8.4-6.6,16.7-6.3,20.5-0.8c3.8,5.5,1.8,14-6.6,20.6c-8.4,6.6-19.4,8.4-23.2,2.9 C92.2,106.8,97,96.2,105.4,89.6z M131.9,167.6c0-2.5,1.9-4.5,4.3-4.5c2.4,0,4.3,2,4.3,4.5c0,2.5-1.9,4.5-4.3,4.5 C133.8,172.2,131.9,170.1,131.9,167.6z M262,163.1c0-2.4,1.8-4.3,4.1-4.3c2.2,0,4.1,1.9,4.1,4.3c0,2.4-1.8,4.3-4.1,4.3 C263.9,167.4,262,165.5,262,163.1z M58.4,96.7c-2.8-6.4-1.4-11.9,2.3-13.7c3.8-1.8,8.6,0.7,11.4,7.1c2.8,6.4,2.3,14-1.5,15.8 C66.9,107.6,61.2,103.1,58.4,96.7z M303.6,195.2L303.6,195.2c0.3-1.4,0.2-3.3-1.6-3.9c-1.6-0.5-3.2,0.1-3.9,2.2 c-0.7,1.8-2.2,6.1-7.5,6.1c0,0-3.6,0.1-6.4-3.8c0,0,0,0,0-0.1c3.7-3.4,6.9-7.9,8-9.9c4.8-8.8,7.2-18,6-24.6 c-1.1-6.3-5.5-7.6-8.9-6.9c-10.1,2-19.8,22.7-13.4,40.2c-2.7,2.1-5.4,3-6.9,2.8c-4.8-1-5.6-7.5-3.9-15.7l0.1-0.1 c1.1-4.8,3.9-10.3-0.7-11.1c-1.3-0.2-4.2-0.5-6,5.2c-1.3,4-0.9,3-2.2,7c-0.4,1.1-0.8,2.3-1.4,3.6c-2.3,4.6-8,12.2-17.4,5.2 c2.3-2.3,4.4-4.5,5.3-5.6c6.6-8.3,10.7-17.7,10.7-25c0-7-4.3-9.3-7.9-9.3c-10.7,0-20.6,17-21.1,40.9c-2.7,1.6-6,4.3-4.7,7.2 c1.1,2.4,3.4,2,4.9,1.4c0.6,12,5.6,24.4,13.9,24.4c5.9,0,9.2-6.1,9.2-12.1c0-3.8-0.8-8-2.5-11.5c4.7-0.5,9.6-2.6,13.3-7.2 c0.6,3.5,2.5,8.9,8.9,9.9c3,0.5,7.1-0.9,11.4-3.8c3,4,7.2,6.1,11.4,6.1h0.2C299.4,206.4,302.9,198.1,303.6,195.2z M245.4,158.2 c1.2,0,1.5,1.1,1.5,2.3c0,6.5-6.6,18.6-15.1,27.1C234,167.1,242.7,158.2,245.4,158.2z M238.9,217.9c-4.2,0.5-7.9-9.7-7.8-20.7 c0-0.1,0.1-0.3,0.1-0.4c0.1-0.1,0.2-0.2,0.3-0.2c1.4,1.8,3.9,3.5,6.9,4.4h0C241.2,207.7,243.3,217.1,238.9,217.9z M290.3,160.4 c1.1-0.1,1.5,0.7,1.7,1.9c0.9,5.4-3,18.5-10.5,27.3C278.7,176.8,286.8,160.9,290.3,160.4z M213.2,185.8c-5.2,0-7-2.2-7-4.3 c0-2.6,2.9-4.2,7-4.2c4,0,7.2,1.3,7.2,4.2C220.4,183.7,218.4,185.8,213.2,185.8z M100.7,135.6c0.1-1.8,0.1-3.5,0-5.2 c5.7,0.6,13.7,6.4,13.7,9.5c0,2.8-5.1,0.7-15.5,8.4C99.9,144.2,100.5,139.9,100.7,135.6z M77.8,136.8c-1.3-3.2,2-9,5.1-9.1 c2.5,0,2.6,2.4,2.5,3.4C85.3,135.6,80.2,141,77.8,136.8z M362.8,204.3c-3.5-0.3-7.1-2.7-10.5-6.1c3.2-1.2,6.3-2.7,9.1-4.6 c4.6-3.5,0.8-8.9-3.6-6.1c-3.3,2.1-6.8,3.7-10.3,4.9c-3.3-4.5-6.2-9.8-8.5-14.9c4-6.5,6.5-12.6,6.5-17.1c0-5.3-3-10.4-8.8-10.4 c-6,0-8.9,6.2-8.9,11.6c0,4.1,1.2,9.4,3.2,15c-4.3,6.3-9.8,13.3-15.3,19.3c-2.8-0.2-4.6-0.5-5-0.5c-5.5-0.7-6.9,5.5-1.3,7.1 c-3.3,3.3-6.4,5.9-8.9,7.6c-3.9,2.6-4.7,5.1-3.2,7.4c2.4,3.4,7.5-0.6,7.5-0.6c3.7-2.8,9-7.8,14.4-13.7c6.6,0.1,16-0.4,25.3-2.6 c5.2,6.3,11.1,10.6,16.7,10.9C369,212.1,368.7,204.8,362.8,204.3z M337,157.1c1.8,0,2,2.2,1.8,3.4c-0.1,2.1-1.2,5-3,8.3 C333.9,162.1,333.9,157.1,337,157.1z M325.5,196.1c3.2-3.8,6.2-7.7,9-11.6c1.7,3.4,3.6,6.8,5.7,10 C334.9,195.5,329.9,196,325.5,196.1z M206.9,196L206.9,196c-3.4,0.3-4.2,8.1-11,8.5c-4.7,0.3-6.8-5.6-6.8-5.6s13.2-6.1,13.1-19.3 c-0.2-3.8-2.1-9.8-9.1-9.8c-3,0-6.4,2-8.3,4.1c0.7-3.6,1.3-8.2,1.6-14.4c0.2-4.1-2.6-4.4-3.7-4.4c-0.8,0-3.2,0.7-3.5,4.3 c-1.1,12.2-1.2,14-2.2,21.8c-1.8,14.3-11.7,19.3-18.2,18.9c-2.8-0.2-7.1-1.7-7.1-9.2c0-8.1,5.1-14.1,7.8-13.7 c1.9,0.3,2.9,2.3,1.2,5.1c-1.4,2.4-2.8,5.7,0.7,7.1c4.2,1.4,7.3-4.7,7.4-10.4c0-4.4-2.7-9.6-9.5-9.9c-7.1-0.4-15.5,9.4-15.5,22.6 c0,1.1,0.1,2.1,0.2,3.1c-0.5,3-3,6-5.5,6c-2.7,0-5-4.1-4.7-9.2c0.3-5.3,1.9-8.9,2.6-11c1.4-4.4-0.3-5.3-2.2-5.7 c-1.5-0.3-4,0.1-5.3,4.5c-1.2,4-2.7,9.4-4,13.5c-0.8,2.5-1.9,5.3-3.3,7.3c-1.2,1.4-2.5,2.3-3.8,2.3c-4.4,0-0.7-8.9-0.7-15.1 c0-1.7-1.4-4.9-5.7-4c4.8-7.3,7.3-13.5,7.1-19.9c-0.3-7-5.2-9-8.9-9c-9.9,0.2-15.1,11.7-17,38.6c-8.9,8.9-19.8,14.3-30.2,13.4 c-14.7-1.3-22.3-16.5-21.3-34.7c1.4-25.6,20.5-56.4,38.7-54.5c6.4,0.7,10.8,6.6,10.1,19.5c-0.8,15-11,36.8-21.8,36.1 c-5-0.3-6.5-5.7-6.1-10.4c0.8-10.3,5.8-13.1,6.1-17.3c0.2-2.5-2.2-3.5-3.9-2.9c-3,1-9,8.9-9.7,20c-0.9,13.7,7.6,17.9,12.7,18.2 c14.9,0.9,29.5-21.2,30.7-44.3c0.8-15-5.4-24.7-17.1-26c-22.7-2.6-46.6,28.9-47.9,62c-0.7,19.7,8.3,40.4,29.3,42 c10,0.7,20.6-3.5,29.8-11c0,1.7,0,3.2,0,4.3c0.1,2.8,1,5.2,3.9,5.1c2.7-0.1,3.5-2.2,3.4-4.7c0-1.5,0-2.9,0-4.3 c0.6-12,6.3-13.8,8.6-13.3c3.2,0.7,0.6,3.7,1,12.4c0.2,6.2,5,7.8,7.2,7.8c5.2,0,9.7-4,12.4-9.9l0.1-0.1c2.3,6.1,6.2,8.2,9.3,8.2 c3.6,0,7.1-2.8,9.3-5.9c3,3.9,7.3,5.6,10.5,5.8c6.6,0.3,12.2-2.9,16.3-7.1c-0.5,3.3-1.1,7.8-1.1,8.6c0,2,0.9,3.4,2.7,3.6 c3.1,0.4,5.3-1.8,6.2-12.4c0,0,4.3,10.5,13.9,10.5c9.6,0,13.8-9.7,13.8-12.7C209.5,197.8,209.2,195.7,206.9,196z M106.6,178.4 c-1.7,2.6-3.9,5.5-6.6,8.7c0.1-1.3,0.3-2.6,0.4-3.8c2.1-17.2,5.3-23,9.4-22.3c1.3,0.3,1.9,1.7,1.9,2.9 C112.1,167.8,110.5,172.4,106.6,178.4z M183.8,193c1.2-13.1,5-15.8,8-16c2.7,0,3.4,2.7,3.3,4.3C194.5,187.6,185.9,192.7,183.8,193z M77.7,86.6c1.7-8.5,6.9-12.8,11.9-11.7c5,1.2,8,7.4,6.3,15.9c-1.7,8.5-7.5,15.6-12.5,14.4C78.4,104,75.9,95.1,77.7,86.6z M46.8,100.2c2-2.4,5.7-2.4,9.2,0.8c3.5,3.2,5.3,8.1,3.3,10.6c-1.9,2.4-6.8,1.4-10.4-1.8C45.5,106.5,44.9,102.6,46.8,100.2z"></path> </svg> 