<?xml version="1.0" encoding="UTF-8"?> <!-- Generator: Adobe Illustrator 23.0.3, SVG Export Plug-In . SVG Version: 6.00 Build 0) --> <svg xmlns:cc="http://creativecommons.org/ns#" xmlns:dc="http://purl.org/dc/elements/1.1/" xmlns:inkscape="http://www.inkscape.org/namespaces/inkscape" xmlns:rdf="http://www.w3.org/1999/02/22-rdf-syntax-ns#" xmlns:sodipodi="http://sodipodi.sourceforge.net/DTD/sodipodi-0.dtd" xmlns:svg="http://www.w3.org/2000/svg" xmlns="http://www.w3.org/2000/svg" xmlns:xlink="http://www.w3.org/1999/xlink" version="1.1" id="Layer_1" inkscape:version="0.92.2 5c3e80d, 2017-08-06" sodipodi:docname="Dunkin'.svg" x="0px" y="0px" viewBox="0 0 400 300" style="enable-background:new 0 0 400 300;" xml:space="preserve"> <style type="text/css"> .st0{fill:#FE6D01;} .st1{fill:#F40290;} </style> <path id="path5" inkscape:connector-curvature="0" class="st0" d="M166.5,153.3c-0.2,0.3-0.1,0.7-0.1,1c0,5.3,0,10.5,0,15.7 c0,1.5-0.2,2.9-0.6,4.3c-1.3,4.5-5.1,7.2-9.8,6.9c-5.8-0.4-9.1-3.9-9.5-10c-0.1-0.6-0.1-1.2-0.1-1.8c0-13.5,0-27,0-40.5 c0-4.2,1.6-7.5,5.6-9.2c4.1-1.7,8-1.1,11.4,2c1.8,1.6,3.1,3.8,4.6,5.8c4.5,6.1,9.3,12.1,13.5,18.5c0.4,0.7,0.8,1.3,1.5,1.9 c0-0.3,0-0.7,0-1c0-5.6,0-11.2,0-16.8c0-2.3,0.4-4.6,1.6-6.6c2.2-3.7,5.6-4.9,9.6-4.5c4.7,0.4,7.9,3.6,8.5,8.4 c0.2,1.1,0.2,2.2,0.2,3.3c0,13.5,0,27.1,0,40.6c0,4.2-1.5,7.5-5.4,9.2c-4.2,1.8-8.2,1.1-11.6-2c-2.1-1.9-3.7-4.3-5.5-6.6 c-4.7-6-9.8-11.8-13.8-18.4C166.7,153.4,166.6,153.4,166.5,153.3z"></path> <path id="path7" inkscape:connector-curvature="0" class="st0" d="M313,153.4c0,0.4,0,0.8,0,1.1c0,5.7-0.1,11.3-0.1,17.1 c0,1.6-0.5,3.1-1.2,4.6c-1.7,3.4-5.3,5.4-9.2,5.1c-5.6-0.4-9-4-9.4-9.7c0-0.3-0.1-0.7-0.1-1c0-14.2-0.1-28.5,0-42.7 c0-3.6,1.7-6.4,5-8c3.7-1.7,7.3-1.5,10.8,0.8c1,0.7,1.9,1.5,2.6,2.4c5.5,7.4,11.1,14.6,16.3,22.2c0.6,0.9,1.1,1.7,1.8,2.9 c0-0.7,0-1,0-1.4c0-5.7,0-11.5,0-17.2c0-2.7,0.6-5.3,2.4-7.5c2.7-3.2,6.2-3.7,10-3c3.6,0.7,5.8,3.1,6.8,6.5c0.5,1.6,0.6,3.3,0.6,4.9 c0,13.6,0,27.2,0,40.7c0,4.1-1.5,7.4-5.4,9.1c-4,1.7-7.9,1.2-11.3-1.6c-0.5-0.4-1.1-1-1.5-1.5c-5.4-7-11.2-13.7-16.3-21 c-0.7-0.9-1.2-1.8-1.8-2.8C313.1,153.4,313.1,153.4,313,153.4L313,153.4z"></path> <path id="path9" inkscape:connector-curvature="0" class="st0" d="M45.1,120c3.5,0.1,7.5-0.3,11.5,0.5c11,2.1,19.5,7.6,23.4,18.4 c4,11.1,2.7,21.7-5.2,31c-4.8,5.7-11.3,8.7-18.6,9.7c-6.7,1-13.5,0.3-20.3,0.4c-0.3,0-0.7-0.1-1-0.2c-5.3-0.9-9-5.3-9-10.6 c0-12.8,0-25.6,0-38.3c0-6,4.6-10.8,10.7-10.9C39.3,120,42,120,45.1,120z M45.8,150.1c0,3.3,0,6.6,0,9.9c0,0.5-0.1,0.9,0.7,0.9 c2.1-0.1,4.2,0.1,6.3-0.2c5.5-0.7,9.2-4.8,9.3-10.6c0.1-5.6-3.6-10-9.2-10.7c-2.1-0.3-4.1-0.1-6.2-0.2c-0.8-0.1-1,0.2-1,1 C45.8,143.5,45.8,146.8,45.8,150.1z"></path> <path id="path11" inkscape:connector-curvature="0" class="st0" d="M229.7,137.5c3.6-4.6,7.3-9,10.8-13.6c2-2.6,4.4-4.5,7.8-4.8 c5.9-0.6,11.5,4.8,11.1,10.7c-0.2,2.7-1.3,5-3,7.1c-3.4,4.1-6.9,8.1-10.4,12.1c-0.5,0.6-0.5,0.9,0,1.5c3.7,4.1,7.4,8.4,11.1,12.5 c2,2.3,3.1,4.8,3,7.9c-0.2,6.5-6.8,11.6-12.8,9.8c-2.1-0.6-3.7-1.8-5.1-3.5c-3.9-4.8-7.9-9.5-11.7-14.4c-0.2-0.2-0.3-0.4-0.5-0.7 c-0.4,0.2-0.2,0.5-0.2,0.8c0,2.9,0.1,5.7-0.1,8.6c-0.2,5.8-4.3,9.9-9.9,9.8c-5.7,0-9.9-4.1-9.9-9.8c-0.1-14.3-0.1-28.6,0-42.9 c0.1-5.8,4.3-9.8,10-9.8c5.6,0.1,9.7,4,9.9,9.8C229.8,131.5,229.7,134.5,229.7,137.5L229.7,137.5z"></path> <path id="path13" inkscape:connector-curvature="0" class="st0" d="M139.7,144.3c-0.1,3.9,0.2,8.8-0.1,13.6 c-0.7,12-9.6,21.5-21.6,23c-5.3,0.7-10.5,0.4-15.5-1.7c-8.9-3.6-13.8-10.4-15.2-19.8c-0.2-1.2-0.2-2.4-0.3-3.7c0-9-0.1-17.9,0-26.8 c0.1-6,4.2-10.2,10-10.2c5.8,0.1,9.9,4.3,9.9,10.4c0,8.4,0,16.9,0,25.3c0,2.8,1,5.1,3.6,6.4c4.1,2.1,8.6-0.8,9.1-5.5 c0.1-0.6,0.1-1.2,0.1-1.8c0-8.2,0-16.5,0-24.7c0-5.4,3.6-9.4,8.9-10c5.2-0.5,9.7,2.7,10.8,7.8c0.2,0.8,0.2,1.6,0.2,2.5 C139.7,133.9,139.7,138.6,139.7,144.3L139.7,144.3z"></path> <path id="path15" inkscape:connector-curvature="0" class="st0" d="M266.3,149.9c0-7.1-0.1-14.2,0-21.3c0.1-4.1,1.8-7.3,5.6-9 c4-1.7,7.8-1.2,11.1,1.7c2,1.7,3,4.1,3,6.7c0.1,14.6,0.1,29.2,0,43.8c-0.1,5.5-4.6,9.6-10,9.4c-5.7-0.2-9.8-4.1-9.8-9.7 C266.3,164.3,266.3,157.2,266.3,149.9L266.3,149.9z"></path> <path id="path17" inkscape:connector-curvature="0" class="st1" d="M355.5,133.2c-0.1-2.4,0-4.8,0.5-7.2c1.1-5,5.3-7.8,10.4-7 c4.9,0.8,8.1,4.8,7.6,9.8c-0.4,4.1-1.6,8.1-3.2,11.9c-1,2.2-2.4,4-4.8,4.8c-3.9,1.3-8-0.6-9.4-4.5 C355.6,138.5,355.5,135.8,355.5,133.2L355.5,133.2z"></path> </svg> 