<?xml version="1.0" encoding="UTF-8"?> <!-- Generator: Adobe Illustrator 23.0.3, SVG Export Plug-In . SVG Version: 6.00 Build 0) --> <svg xmlns="http://www.w3.org/2000/svg" xmlns:xlink="http://www.w3.org/1999/xlink" version="1.1" id="logosvg.com" x="0px" y="0px" viewBox="0 0 400 300" style="enable-background:new 0 0 400 300;" xml:space="preserve"> <style type="text/css"> .st0{fill:#0078FF;} .st1{fill:#00E89D;} .st2{fill:#949A9F;} </style> <path id="blue" class="st0" d="M180.8,55.5l38.1,21.9L168,165.8l-38.1-21.9L180.8,55.5z M282.4,55.5l-50.8,88.4l38.1,21.9l50.8-88.4 L282.4,55.5z"></path> <path id="green" class="st1" d="M323.4,66.5c0,12.1-9.9,22-22,22c-12.1,0-22-9.9-22-22c0-12.1,9.9-22,22-22 C313.6,44.5,323.4,54.4,323.4,66.5z M117.1,55.5c-6.1-10.6-19.5-14.1-30-8.1C76.6,53.5,73,66.9,79,77.4l50.8,88.4 c4.1,7.1,11.5,11,19.1,11c3.7,0,7.4-0.9,10.9-2.9c10.5-6.1,14.1-19.5,8.1-30L117.1,55.5z M218.8,55.4c-6.1-10.5-19.5-14.1-30-8.1 c-10.5,6.1-14.1,19.5-8.1,30l50.8,88.4c4.1,7.1,11.5,11,19.1,11c3.7,0,7.5-0.9,10.9-2.9c10.5-6.1,14.1-19.5,8.1-30L218.8,55.4z"></path> <path id="text" class="st2" d="M117.9,220.7h8.3l-11.9,33.8h-6.4l-6.7-21.3l-6.7,21.3H88l-11.9-33.8h8.3l6.9,22.2l6.8-22.2h6.1 l6.9,22.2L117.9,220.7z M158.7,220.7l12.3,33.8h-8.6l-1.3-4.1h-12l-1.3,4.1h-8.3l12.1-33.8H158.7z M159.1,244.3l-4-13.9l-4.2,13.9 H159.1z M199.8,234l-7.2-13.3h-9.2l12.4,21.8v12h7.9v-12l12.3-21.8H207L199.8,234z M251.5,244.3l-9.1-23.6h-9v33.8h7.6v-20.9 l7.5,20.9h5.8l7.3-20.9v20.9h7.6v-33.8h-8.8L251.5,244.3z M323.9,237.6c0,9.2-6.7,17.8-17.8,17.8c-11.2,0.1-17.9-8.5-17.9-17.8 c0-9.3,6.7-17.8,17.9-17.8C317.3,219.8,323.9,228.4,323.9,237.6z M316,237.6c0-5.6-3.8-10.7-9.9-10.7c-6.2,0-9.9,5.2-9.9,10.7 c0,5.5,3.7,10.7,9.9,10.7C312.2,248.4,316,243.2,316,237.6z"></path> </svg> 