<svg width="87" height="61" viewBox="0 0 87 61" fill="none" xmlns="http://www.w3.org/2000/svg">
<g opacity="0.9">
<path d="M11.0244 13.7962C10.1098 13.3104 9.06317 13.1317 8.03919 13.2863C7.33449 13.3872 6.66348 13.6527 6.08054 14.0614C5.49761 14.47 5.01916 15.0102 4.68397 15.6382C3.9455 17.0149 3.72103 18.6095 4.05075 20.1365C4.17503 20.9663 4.59572 21.723 5.23495 22.2664C5.5317 22.5308 5.88702 22.7208 6.27163 22.8209C6.65624 22.921 7.05913 22.9283 7.44709 22.8421C8.92897 22.4658 10.2815 21.6957 11.3615 20.6135L11.5671 24.125C10.3413 24.9121 8.97178 25.4487 7.53755 25.7039C5.98875 26.0673 4.35903 25.8011 3.00636 24.9638C2.37688 24.5213 1.84735 23.9516 1.45211 23.2914C1.05686 22.6312 0.804708 21.8954 0.711979 21.1316C0.205308 18.754 0.613465 16.2727 1.85506 14.1827C2.45026 13.201 3.25641 12.3641 4.21507 11.7326C5.17373 11.1011 6.26089 10.6908 7.39775 10.5314C8.67032 10.2758 9.98727 10.3523 11.2217 10.7534L11.0244 13.7962Z" fill="white"/>
<path d="M5.69517 40.0539C5.99251 40.2498 6.32772 40.3811 6.67906 40.4392C7.0304 40.4973 7.39003 40.4809 7.73462 40.391C8.48477 40.3088 9.20731 40.0611 9.8501 39.6657C10.4929 39.2704 11.0399 38.7373 11.4517 38.1049C12.2189 36.6416 12.4265 34.9488 12.0356 33.3434C11.9857 32.9398 11.8516 32.5511 11.642 32.2026C11.4323 31.8541 11.1517 31.5536 10.8185 31.3204C10.4569 31.0875 10.0519 30.9302 9.62788 30.8581C9.20385 30.786 8.76962 30.8006 8.35139 30.901C7.82087 31.029 7.32431 31.2703 6.89582 31.6083C6.4514 31.921 6.07857 32.3247 5.80208 32.7925L5.69517 40.0539ZM5.69517 42.965V47.0768L2.40574 47.6607L2.58666 33.7628C2.59492 33.181 2.54534 32.5997 2.43864 32.0277C2.29899 31.2342 2.08703 30.4552 1.80542 29.7004L4.93038 28.5491C5.15544 28.9643 5.33466 29.4027 5.46491 29.8566C6.35716 28.8341 7.55798 28.1298 8.88592 27.8501C12.6688 27.1812 14.8864 28.6861 15.5388 32.3648C16.0606 34.7761 15.6461 37.2955 14.3793 39.4124C13.7531 40.4038 12.9179 41.2464 11.9321 41.8814C10.9463 42.5163 9.8337 42.9282 8.67211 43.0884C7.67932 43.2936 6.65128 43.2512 5.67873 42.965H5.69517Z" fill="white"/>
<path d="M20.0948 35.1769C20.4567 37.1917 21.501 38.047 23.2527 37.7427C23.9183 37.6301 24.542 37.3422 25.0594 36.9086C25.5769 36.475 25.9694 35.9113 26.1967 35.2756C26.7864 33.7633 26.9291 32.1135 26.6079 30.5224C26.2707 28.6228 25.2263 27.8168 23.4829 28.1293C22.8196 28.243 22.1986 28.5315 21.684 28.9652C21.1694 29.3988 20.7798 29.9619 20.5553 30.5964C19.948 32.0546 19.7877 33.6604 20.0948 35.2099M16.6738 35.9746C16.1879 33.5994 16.6199 31.1282 17.8827 29.0586C18.463 28.0751 19.2547 27.2328 20.2005 26.5928C21.1463 25.9528 22.2225 25.531 23.3513 25.358C24.8767 24.9828 26.4886 25.2283 27.8332 26.0406C28.4433 26.4851 28.9543 27.0517 29.3337 27.7044C29.7132 28.357 29.9527 29.0814 30.0371 29.8316C30.5335 32.2301 30.1202 34.7274 28.8776 36.8381C28.294 37.8323 27.4944 38.6826 26.5378 39.326C25.5812 39.9694 24.4922 40.3895 23.3513 40.5552C21.8343 40.9191 20.2348 40.6678 18.9024 39.8562C18.2791 39.3946 17.7589 38.8081 17.3752 38.134C16.9915 37.46 16.7526 36.7133 16.6738 35.9417V35.9746Z" fill="white"/>
<path opacity="0.5" d="M12.8499 19.0178C12.7452 18.423 12.6875 17.8208 12.6772 17.2169C12.7348 13.8452 12.7595 12.3567 12.817 10.161L16.2052 9.56071L16.1311 16.6001C16.1264 17.1515 16.1732 17.7021 16.2709 18.2448C16.6328 20.2678 17.6772 21.1231 19.4288 20.8106C20.0957 20.7013 20.721 20.4146 21.2389 19.9805C21.7569 19.5465 22.1486 18.981 22.3728 18.3435C22.7478 17.413 22.9404 16.4191 22.9403 15.4159C22.9978 12.0524 23.0225 10.5558 23.0801 8.36828L26.4682 7.76797L26.3942 14.8074C26.4352 16.5976 25.9675 18.3627 25.0455 19.8978C24.461 20.892 23.6613 21.7426 22.705 22.3873C21.7487 23.0319 20.6601 23.4542 19.5193 23.623C18.0011 23.9845 16.4016 23.7302 15.0703 22.9158C14.4501 22.4586 13.9318 21.8774 13.5481 21.2092C13.1645 20.541 12.9239 19.8004 12.8417 19.0343" fill="white"/>
<path fill-rule="evenodd" clip-rule="evenodd" d="M20.251 49.8068C19.7493 46.0075 25.7032 44.7658 26.0732 46.8463C26.1163 47.2088 26.0462 47.5757 25.8724 47.8966C25.6987 48.2176 25.4299 48.4769 25.1029 48.6391C24.2088 49.2056 23.2059 49.5782 22.1588 49.7328C21.5295 49.8465 20.8873 49.8714 20.251 49.8068ZM14.6178 48.4088C15.2454 48.5715 15.8464 48.8235 16.4023 49.1571C16.8053 49.3956 16.7477 49.2887 16.6655 49.7163C16.4387 50.8869 16.4387 52.0901 16.6655 53.2607C16.7698 54.0988 17.0421 54.9073 17.466 55.6378C17.8899 56.3683 18.4567 57.0058 19.1326 57.5123C19.7848 57.9704 20.525 58.2881 21.3064 58.4452C22.0878 58.6024 22.8933 58.5955 23.672 58.4251C27.7838 57.7014 29.4943 55.4811 32.6028 52.9482L31.6735 50.366C29.5847 52.7591 24.5437 57.0682 21.468 55.1439C21.1132 54.9044 20.8146 54.5906 20.5931 54.2243C20.3716 53.8579 20.2324 53.4478 20.1852 53.0222C20.1489 52.8237 20.1241 52.6233 20.1112 52.4219C21.0987 52.5945 22.1087 52.5945 23.0963 52.4219C24.9023 52.1665 26.5913 51.3792 27.9482 50.1604C28.5245 49.66 28.9582 49.0161 29.2052 48.2939C29.4522 47.5718 29.5037 46.7971 29.3545 46.0486C29.2874 45.5097 29.0795 44.9979 28.7518 44.5648C28.4241 44.1317 27.9881 43.7926 27.4877 43.5816C24.445 42.2082 19.3957 44.7082 18.0141 46.6407C17.3892 47.5289 10.9419 43.302 7.15901 47.4631C6.70231 47.9302 6.3663 48.5016 6.18003 49.1277C5.99376 49.7539 5.96284 50.416 6.08996 51.0568C6.19243 51.6753 6.47903 52.2484 6.91232 52.7015C7.37315 53.1949 7.95396 53.5604 8.59814 53.7624C9.29714 54.0091 10.1031 54.2722 11.0077 54.5847C11.9122 54.8972 12.4139 55.2508 12.4961 55.7278C12.5532 55.9893 12.5456 56.2609 12.474 56.5189C12.4023 56.7768 12.2688 57.0134 12.0849 57.208C11.6673 57.6535 11.1104 57.9435 10.506 58.0304C10.2616 58.0714 10.0136 58.0879 9.7659 58.0797C8.73864 58.1459 7.70786 58.0261 6.72316 57.7261C5.03739 57.1979 3.52764 56.2198 2.35645 54.8972V58.5074C3.37384 59.3167 4.52264 59.9453 5.75279 60.3659C7.27414 60.9713 8.93247 61.1477 10.5471 60.8757C12.1653 60.6586 13.6631 59.9025 14.7987 58.7294C15.2919 58.2003 15.6498 57.5597 15.8417 56.8623C16.0336 56.1649 16.0538 55.4314 15.9007 54.7245C15.7973 54.1184 15.5102 53.5586 15.0783 53.1209C14.6766 52.6928 14.1772 52.3683 13.6227 52.1752C13.0553 51.9778 12.2494 51.7229 11.205 51.4022C10.1606 51.0815 9.56031 50.6703 9.49452 50.1522C9.45755 49.9433 9.47777 49.7283 9.55306 49.53C9.62834 49.3316 9.75586 49.1573 9.92214 49.0256C10.3089 48.6922 10.7822 48.4755 11.2873 48.4006H11.4435C12.494 48.2184 13.5683 48.2212 14.6178 48.4088Z" fill="white"/>
<path d="M53.499 5.18591C52.772 5.31641 52.0935 5.64034 51.5349 6.12366C50.9764 6.60699 50.5583 7.23185 50.3247 7.93258C49.6865 9.56439 49.524 11.3437 49.856 13.0641C50.1301 14.5827 51.0155 15.2132 52.5122 14.9555C53.4661 14.7911 54.198 14.0509 54.6996 12.7598C55.2013 11.4687 55.4069 8.91119 55.3164 5.13657C54.7112 5.06883 54.0996 5.08543 53.499 5.18591ZM58.4825 11.1727C58.477 11.5424 58.5101 11.9117 58.5812 12.2746C58.7379 13.641 59.1273 14.9705 59.7325 16.2055L57.6684 16.5673C57.0434 16.6742 56.5006 16.2878 56.0236 15.3996C55.5688 16.0491 54.9864 16.5992 54.312 17.0163C53.6376 17.4334 52.8853 17.7087 52.101 17.8255C51.4567 17.9798 50.7875 17.9995 50.1352 17.8835C49.4829 17.7675 48.8615 17.5182 48.3099 17.1512C47.784 16.7392 47.3453 16.2268 47.0192 15.6437C46.6931 15.0607 46.4861 14.4186 46.4103 13.7549C45.9048 11.2342 46.3407 8.6157 47.6356 6.39478C48.2114 5.34519 49.02 4.44146 49.9993 3.75293C50.9786 3.06441 52.1027 2.60939 53.2852 2.4228C55.0205 2.01761 56.815 1.93121 58.5812 2.16785L58.4825 11.1727Z" fill="white"/>
<path d="M43.9515 14.6184V18.7712L40.6621 19.3551L40.843 5.45728C40.8513 4.87541 40.8017 4.29417 40.695 3.72211C40.5592 2.9278 40.3472 2.14845 40.0618 1.39485L43.1867 0.24353C43.3983 0.651565 43.5717 1.07828 43.7048 1.5182C43.9841 2.45714 44.1172 3.43345 44.0995 4.41289L44.0091 11.6825L43.9515 14.6184Z" fill="white"/>
<path fill-rule="evenodd" clip-rule="evenodd" d="M60.5304 28.0471C60.8867 30.0646 61.9394 30.9199 63.6883 30.6129C64.3539 30.5003 64.9775 30.2124 65.495 29.7788C66.0124 29.3452 66.405 28.7815 66.6323 28.1458C67.2179 26.6326 67.3605 24.9839 67.0435 23.3926C66.7063 21.4929 65.6619 20.687 63.9185 20.9995C63.2552 21.1132 62.6342 21.4017 62.1196 21.8354C61.6049 22.269 61.2153 22.8321 60.9909 23.4666C60.3835 24.9248 60.2232 26.5306 60.5304 28.08M57.1094 28.8448C56.6252 26.4705 57.0539 24.001 58.31 21.9288C58.893 20.9458 59.6865 20.1041 60.6335 19.4643C61.5804 18.8244 62.6574 18.4023 63.7869 18.2282C65.3124 17.8539 66.9239 18.0994 68.2688 18.9107C68.8789 19.3553 69.3899 19.9219 69.7693 20.5745C70.1487 21.2272 70.3883 21.9516 70.4727 22.7018C70.9691 25.1003 70.5558 27.5976 69.3132 29.7083C68.7296 30.7025 67.9299 31.5528 66.9734 32.1962C66.0168 32.8396 64.9278 33.2597 63.7869 33.4253C62.2698 33.7893 60.6704 33.5379 59.338 32.7263C58.9998 32.4955 58.6953 32.2187 58.4334 31.904C57.7606 32.6168 57.0288 33.2715 56.2459 33.8612C55.0208 34.6497 53.651 35.1864 52.2164 35.4401C50.6676 35.8036 49.0378 35.5374 47.6852 34.7C47.0561 34.2579 46.5273 33.688 46.1334 33.0277C45.7395 32.3674 45.4892 31.6314 45.399 30.8678C44.8857 28.4913 45.2912 26.0086 46.5339 23.9189C47.1299 22.938 47.9363 22.1017 48.8948 21.4703C49.8533 20.8389 50.94 20.4281 52.0765 20.2676C53.3519 20.0121 54.6715 20.0885 55.9087 20.4897L55.7443 23.5159C54.831 23.0262 53.7831 22.8472 52.7591 23.0061C52.0546 23.1076 51.3839 23.3734 50.801 23.7819C50.2182 24.1905 49.7396 24.7304 49.4039 25.358C48.6654 26.7347 48.441 28.3293 48.7707 29.8563C48.895 30.6861 49.3156 31.4427 49.9549 31.9862C50.248 32.2459 50.5974 32.4338 50.9756 32.5351C51.3539 32.6365 51.7505 32.6484 52.1341 32.5701C53.5137 32.2249 54.7803 31.5279 55.8101 30.5471C56.3122 30.0719 56.7566 29.5392 57.1341 28.9599L57.1094 28.8448Z" fill="white"/>
<path opacity="0.5" d="M31.0159 33.1295C30.9121 32.5316 30.8516 31.9269 30.835 31.3203C30.835 27.9569 30.8843 26.4684 30.9254 24.2809L34.1737 23.7053V30.7364C34.1828 31.2879 34.2351 31.8378 34.33 32.3812C34.6809 34.3932 35.6978 35.2539 37.3809 34.9634C38.031 34.85 38.6374 34.5598 39.1335 34.1247C39.6296 33.6895 39.9963 33.1261 40.1934 32.4963C40.5508 31.5649 40.7293 30.5745 40.7197 29.5769C40.7197 26.2135 40.769 24.725 40.8102 22.5293L44.0996 21.9537V28.9931C44.1606 30.7659 43.7248 32.5205 42.8414 34.0588C42.304 35.0392 41.547 35.882 40.6297 36.5212C39.7123 37.1603 38.6595 37.5785 37.5536 37.7429C36.827 37.9159 36.0729 37.9403 35.3366 37.8145C34.6004 37.6887 33.8971 37.4154 33.2691 37.011C32.667 36.5394 32.1649 35.9525 31.7921 35.2847C31.4194 34.6168 31.1834 33.8814 31.0981 33.1213" fill="white"/>
<path opacity="0.5" d="M45.3987 48.5405C45.2908 47.9431 45.2303 47.3382 45.2178 46.7313C45.2753 43.3596 45.3 41.8711 45.3576 39.6755L48.7457 39.0834L48.6717 46.1227C48.6739 46.6742 48.7234 47.2245 48.8197 47.7675C49.1733 49.7905 50.226 50.6375 51.9693 50.3332C52.6356 50.2223 53.2601 49.935 53.7778 49.5011C54.2955 49.0673 54.6876 48.5027 54.9134 47.8661C55.2948 46.9373 55.4904 45.9426 55.489 44.9385C55.5466 41.5669 55.5713 40.0784 55.6288 37.8827L59.0169 37.2906L58.9347 44.33C58.9841 46.1127 58.5249 47.8726 57.6107 49.4039C57.028 50.3972 56.2296 51.2468 55.2745 51.8902C54.3195 52.5336 53.2321 52.9542 52.0927 53.121C50.5757 53.4868 48.9755 53.2353 47.6437 52.422C47.0243 51.9641 46.5064 51.3827 46.1228 50.7147C45.7393 50.0466 45.4983 49.3063 45.4152 48.5405" fill="white"/>
<path d="M86.1055 35.9993C85.4339 35.6018 84.654 35.4263 83.8769 35.4977C83.4301 35.586 83.0071 35.7679 82.6357 36.0316C82.2643 36.2952 81.953 36.6346 81.7223 37.0273C81.1534 37.8531 80.8415 38.8288 80.826 39.8315L80.752 48.1045L77.4214 48.6966L77.5776 34.0339L80.9082 33.4418V34.7C81.8042 33.5577 83.0892 32.7849 84.5183 32.529C85.1758 32.4499 85.8383 32.4197 86.5002 32.4385L86.1055 35.9993Z" fill="white"/>
<path d="M75.7769 48.9518L72.4053 49.5439L72.5286 37.6279L72.6191 34.873L75.9332 34.2891L75.7769 48.9518Z" fill="white"/>
<path d="M66.2949 40.3742C66.8623 39.6341 66.3525 39.0995 65.6617 39.2558L60.0779 40.2426L60.119 37.2739L67.9807 35.8841C68.4024 35.8518 68.8255 35.9252 69.2116 36.0977C69.5978 36.2702 69.9347 36.5364 70.192 36.872C70.4493 37.2077 70.6187 37.6023 70.6849 38.02C70.7511 38.4376 70.712 38.8653 70.5712 39.264C68.7291 41.7311 66.9117 44.1324 65.0943 46.583C64.5268 47.3314 65.0449 47.8577 65.7275 47.7014L71.3113 46.7146V49.6915L63.4413 51.0731C63.0197 51.1061 62.5965 51.0331 62.2104 50.8606C61.8243 50.6881 61.4875 50.4217 61.2307 50.0857C60.974 49.7496 60.8054 49.3546 60.7405 48.9367C60.6756 48.5188 60.7164 48.0913 60.8591 47.6932C62.7094 45.0945 64.3624 42.8824 66.3278 40.3742" fill="white"/>
<path fill-rule="evenodd" clip-rule="evenodd" d="M46.6324 7.06878L46.7311 4.31387C45.0864 5.48984 41.32 6.46845 38.2937 6.26286C34.807 6.0326 31.9122 5.02932 28.9188 7.72665C28.4403 8.17691 28.0893 8.74576 27.9016 9.37546C27.7138 10.0052 27.6959 10.6733 27.8498 11.3121C27.9542 11.93 28.2405 12.5026 28.6722 12.9569C29.1249 13.4403 29.6898 13.8046 30.3169 14.0177C31.0241 14.2644 31.8218 14.5275 32.7346 14.84C33.6474 15.1525 34.1326 15.5062 34.2231 15.9831C34.2791 16.2454 34.2702 16.5173 34.1971 16.7753C34.124 17.0333 33.9889 17.2695 33.8037 17.4634C33.3836 17.9057 32.828 18.1951 32.2247 18.2857C31.9805 18.3285 31.7321 18.3423 31.4846 18.3269C30.4579 18.3959 29.4271 18.2789 28.4419 17.9815L27.4797 20.6212C28.9998 21.2203 30.6537 21.3965 32.2659 21.1311C33.8846 20.9158 35.383 20.1594 36.5175 18.9847C37.012 18.4548 37.3705 17.8128 37.5625 17.1138C37.7544 16.4149 37.7739 15.6798 37.6194 14.9716C37.5263 14.3502 37.2383 13.7743 36.7971 13.3269C36.388 12.9037 35.8872 12.5801 35.3333 12.3812C34.7658 12.1921 33.9599 11.9289 32.9155 11.6164C31.8711 11.3039 31.2708 10.8763 31.2132 10.3582C31.1769 10.1513 31.1966 9.93847 31.2704 9.74179C31.3441 9.54511 31.4692 9.37176 31.6326 9.23979C33.2198 7.82533 36.2132 8.80394 38.1128 9.05887C40.5799 9.37959 44.6917 8.63126 46.5831 7.09345" fill="white"/>
<path d="M40.5963 44.0256C40.3002 43.8303 39.9667 43.6988 39.617 43.6393C39.2673 43.5798 38.9091 43.5938 38.5651 43.6802C37.8146 43.7645 37.092 44.014 36.4493 44.4107C35.8067 44.8074 35.2598 45.3415 34.848 45.9746C34.078 47.4369 33.8675 49.1297 34.2559 50.7361C34.3092 51.1387 34.4447 51.5261 34.6541 51.8741C34.8635 52.2222 35.1422 52.5234 35.473 52.7591C35.8348 52.9915 36.2401 53.1479 36.6642 53.2186C37.0884 53.2893 37.5225 53.2728 37.9401 53.1702C38.4695 53.0506 38.9646 52.8115 39.3875 52.4712C41.4598 50.9745 40.5963 46.4105 40.621 44.0256M40.621 41.1062V36.9944L43.9104 36.4023L43.6884 46.9614C43.5801 48.0236 43.7093 49.0967 44.0667 50.1028C44.4142 51.3975 45.1543 52.5528 46.1851 53.4098C47.2158 54.2669 48.4868 54.7836 49.8232 54.889L48.7459 57.7672C47.4112 57.5514 46.1402 57.0447 45.0232 56.283C43.9062 55.5212 42.9704 54.5231 42.2821 53.3594C41.0825 54.8776 39.3626 55.8973 37.4549 56.2212C33.6721 56.8845 31.4544 55.3769 30.802 51.6982C30.2764 49.2897 30.6913 46.7715 31.9616 44.6588C32.5851 43.6519 33.424 42.7956 34.4179 42.1514C35.4118 41.5073 36.536 41.0914 37.7098 40.9335C38.6801 40.7582 39.6782 40.8174 40.621 41.1062Z" fill="white"/>
</g>
</svg>
