<svg width="25" height="26" viewBox="0 0 25 26" fill="none" xmlns="http://www.w3.org/2000/svg">
<path d="M4.83333 1L1 5.8V22.6C1 23.2365 1.26925 23.847 1.7485 24.2971C2.22776 24.7471 2.87778 25 3.55556 25H21.4444C22.1222 25 22.7722 24.7471 23.2515 24.2971C23.7308 23.847 24 23.2365 24 22.6V5.8L20.1667 1H4.83333Z" stroke="white" stroke-width="2" stroke-linecap="round" stroke-linejoin="round"/>
<path d="M1 5.80035H24" stroke="white" stroke-width="2" stroke-linecap="round" stroke-linejoin="round"/>
<path d="M17.6116 10.5998C17.6116 11.8738 17.0731 13.0956 16.1146 13.9965C15.1561 14.8973 13.8561 15.4034 12.5005 15.4034C11.145 15.4034 9.84493 14.8973 8.88641 13.9965C7.92789 13.0956 7.3894 11.8738 7.3894 10.5998" stroke="white" stroke-width="2" stroke-linecap="round" stroke-linejoin="round"/>
</svg>
