<?xml version="1.0" encoding="utf-8"?>
<!-- Generator: Adobe Illustrator 25.4.1, SVG Export Plug-In . SVG Version: 6.00 Build 0)  -->
<svg version="1.1" id="Camada_1" xmlns="http://www.w3.org/2000/svg" xmlns:xlink="http://www.w3.org/1999/xlink" x="0px" y="0px"
	 viewBox="0 0 100 100" style="enable-background:new 0 0 100 100;" xml:space="preserve">
<style type="text/css">
	.st0{fill:#FFFFFF;}
</style>
<g>
	<path class="st0" d="M51,85.7c-11.4,0-20.3-6.1-20.3-6.1l-13.8,4.5l4.5-13.4c0,0-7.3-10.1-7.3-21.9c0-20.3,16.6-36.9,36.9-36.9
		s36.9,16.6,36.9,36.9S71.2,85.7,51,85.7z M51,5C26.6,5,7.2,24.9,7.2,48.8c0,12.2,6.5,22.7,6.5,22.7L5.6,95l23.9-7.7
		c0,0,8.9,5.3,21.1,5.3c24.3,0,43.8-19.9,43.8-43.8S74.9,5,51,5z"/>
	<path class="st0" d="M33.9,29.7c0,0,1.2-0.8,1.6-0.8h3.6c0,0,0.8,0,1.2,1.2c0.4,0.8,3.2,7.7,3.6,8.5c0.4,0.4,0.8,2,0,2.8
		c-0.8,1.2-2.8,3.2-2.8,3.2s-0.8,0.8,0,1.6c0.8,1.2,2.8,4.5,6.1,7.3c2.8,2.8,6.5,4.9,8.5,5.3s2.4,0,2.8-1.2c0.8-0.8,2.8-3.6,2.8-3.6
		s0.8-1.2,2.4-0.4c1.6,0.8,8.5,4.1,8.5,4.1s0.8,0,0.8,1.2c0,0.8,0.8,4.1-2,6.9c-2.4,2.8-8.1,4.1-10.9,3.2c-2.4-0.8-11.4-2.8-17-8.1
		S33.1,50,31.1,45.9c-1.6-4.1-1.2-6.5-1.2-7.3C29.9,37.4,30.7,32.2,33.9,29.7"/>
</g>
</svg>
