<?xml version="1.0" encoding="utf-8"?>
<!-- Generator: Adobe Illustrator 25.4.1, SVG Export Plug-In . SVG Version: 6.00 Build 0)  -->
<svg version="1.1" id="Layer_1" xmlns="http://www.w3.org/2000/svg" xmlns:xlink="http://www.w3.org/1999/xlink" x="0px" y="0px"
	 viewBox="0 0 100 100" style="enable-background:new 0 0 100 100;" xml:space="preserve">
<style type="text/css">
	.st0{fill:#FFFFFF;}
</style>
<g>
	<g>
		<g>
			<path class="st0" d="M50,2.5c-19.4,0-35.1,15.7-35.1,35.1c0,18.7,32,57.4,33.4,59.1c0.4,0.5,1.1,0.8,1.7,0.8
				c0.7,0,1.3-0.3,1.7-0.8c1.4-1.6,33.4-40.3,33.4-59.1C85.1,18.2,69.4,2.5,50,2.5z M50,91.6c-2.8-3.5-8.7-11.1-14.6-19.7
				c-10.5-15.5-16-27.4-16-34.3C19.4,20.7,33.1,7,50,7s30.6,13.7,30.6,30.6c0,7-5.5,18.8-16,34.3C58.7,80.6,52.8,88.1,50,91.6z"/>
			<path class="st0" d="M61.5,67c-1-0.7-2.4-0.4-3.1,0.6c-3.1,4.5-6.5,9.3-10.2,14.1c-0.8,1-0.6,2.4,0.4,3.2
				c0.4,0.3,0.9,0.5,1.4,0.5c0.7,0,1.4-0.3,1.8-0.9c3.7-4.9,7.2-9.7,10.3-14.3C62.8,69.1,62.5,67.7,61.5,67z"/>
			<path class="st0" d="M50,19.8c-10.2,0-18.5,8.3-18.5,18.5S39.8,56.9,50,56.9s18.5-8.3,18.5-18.5S60.2,19.8,50,19.8z M50,52.4
				c-7.7,0-14-6.3-14-14s6.3-14,14-14c7.7,0,14,6.3,14,14S57.7,52.4,50,52.4z"/>
		</g>
	</g>
</g>
</svg>
