<svg xmlns="http://www.w3.org/2000/svg" width="165.267" height="165.267" viewBox="0 0 165.267 165.267">
  <g id="Grupo_1" data-name="Grupo 1" transform="translate(-755.653 -169.155)">
    <g id="g992" transform="translate(884.539 295.583)">
      <path id="path994" d="M0,0A24.125,24.125,0,0,1-17.167-7.108L-41.956-31.9a4.711,4.711,0,0,0-6.513,0L-73.348-7.017A24.131,24.131,0,0,1-90.516.09H-95.4l31.394,31.4a25.109,25.109,0,0,0,35.507,0L2.986,0Z" fill="#fff"/>
    </g>
    <g id="g996" transform="translate(794.023 207.902)">
      <path id="path998" d="M0,0A24.126,24.126,0,0,1,17.167,7.109L42.046,31.991a4.61,4.61,0,0,0,6.514,0L73.348,7.2A24.129,24.129,0,0,1,90.516.091H93.5L62.017-31.394a25.107,25.107,0,0,0-35.507,0L-4.884,0Z" fill="#fff"/>
    </g>
    <g id="g1000" transform="translate(913.566 234.035)">
      <path id="path1002" d="M0,0-19.026-19.026a3.621,3.621,0,0,1-1.351.273h-8.65a17.1,17.1,0,0,0-12.01,4.976L-65.826,11.011a11.861,11.861,0,0,1-8.412,3.481,11.868,11.868,0,0,1-8.413-3.478l-24.881-24.881a17.1,17.1,0,0,0-12.01-4.976H-130.18a3.609,3.609,0,0,1-1.278-.258L-150.56,0a25.107,25.107,0,0,0,0,35.507l19.1,19.1a3.613,3.613,0,0,1,1.279-.258h10.637a17.1,17.1,0,0,0,12.01-4.976L-82.654,24.5a12.184,12.184,0,0,1,16.827,0l24.789,24.786a17.093,17.093,0,0,0,12.01,4.976h8.65a3.625,3.625,0,0,1,1.352.272L0,35.507A25.107,25.107,0,0,0,0,0" fill="#fff"/>
    </g>
  </g>
</svg>
