<svg width="25" height="24" viewBox="0 0 25 24" fill="none" xmlns="http://www.w3.org/2000/svg">
<path d="M3.5 7H2.5" stroke="#F2F2F2" stroke-width="1.5" stroke-linecap="round" stroke-linejoin="round"/>
<path d="M4.5 4H2.5" stroke="#F2F2F2" stroke-width="1.5" stroke-linecap="round" stroke-linejoin="round"/>
<path fill-rule="evenodd" clip-rule="evenodd" d="M17.938 16H7.34999C5.74199 16 4.58899 14.45 5.05099 12.91L7.21099 5.71C7.51599 4.695 8.44999 4 9.50999 4H20.099C21.707 4 22.86 5.55 22.398 7.09L20.238 14.29C19.933 15.305 18.998 16 17.938 16Z" stroke="#F2F2F2" stroke-width="1.5" stroke-linecap="round" stroke-linejoin="round"/>
<path d="M5.23999 14.72L12.2 10.09" stroke="#F2F2F2" stroke-width="1.5" stroke-linecap="round" stroke-linejoin="round"/>
<path d="M14.71 10.05L19.78 15.12" stroke="#F2F2F2" stroke-width="1.5" stroke-linecap="round" stroke-linejoin="round"/>
<path d="M17.5 20H3.5" stroke="#F2F2F2" stroke-width="1.5" stroke-linecap="round" stroke-linejoin="round"/>
<path d="M7.698 4.836L12.501 10.44C12.825 10.818 13.377 10.9 13.797 10.633L22.209 5.285" stroke="#F2F2F2" stroke-width="1.5" stroke-linecap="round" stroke-linejoin="round"/>
</svg>
